<svg version="1.1"
     xmlns="http://www.w3.org/2000/svg" xmlns:xlink="http://www.w3.org/1999/xlink" x="0px" y="0px" viewBox="-6.1 16.9 13.1 12.3"
     style="enable-background:new -6.1 16.9 13.1 12.3;" xml:space="preserve">
<g>
    <g transform="translate(-482.000000, -461.000000)">
        <g transform="translate(250.000000, 401.000000)">
            <g transform="translate(100.000000, 22.500000)">
                <g transform="translate(142.000000, 38.000000)">
                    <path fill="#5B5D61" stroke="#5B5D61" stroke-width="0.25" d="M-3.1,19.8c0-1.1-0.9-1.7-1.7-1.7c-0.7,0-1.3,0-2,0c-0.1,0-0.2,0-0.3,0c0-0.2,0-0.4,0-0.6
                        c0-0.6-0.3-0.9-0.9-0.9c-1,0-2,0-3,0c-0.6,0-0.9,0.3-0.9,0.9c0,0.2,0,0.4,0,0.7c-0.1,0.1-0.2,0-0.3,0c-0.7,0-1.3,0-2,0
                        c-0.8,0-1.7,0.6-1.7,1.7c0,2.4,0,4.7,0,7.1c0,1,0.8,1.7,1.7,1.7c3.2,0,6.4,0,9.5,0c0.9,0,1.7-0.7,1.7-1.7
                        C-3.1,24.5-3.1,22.2-3.1,19.8L-3.1,19.8z M-10.5,17.3c0.6,0,1.3,0,1.9,0c0.6,0,0.6,0.2,0.6,0.7c0,0,0,0.1,0,0.1h-3.1
                        c0,0,0,0,0,0C-11.2,17.5-11.1,17.3-10.5,17.3L-10.5,17.3z M-3.9,26.8c0,0.2,0,0.5-0.2,0.7c-0.1,0.1-0.3,0.2-0.5,0.3
                        c-0.1,0-0.2,0-0.3,0h-9.2c-0.1,0-0.2,0-0.2,0c-0.5,0-0.8-0.3-0.8-0.8c0-1.4,0-2.8,0-4.3c0,0,0-0.1,0-0.1h4
                        c-0.1,0.6,0,1.1,0.5,1.6c0.3,0.3,0.7,0.4,1.2,0.4c0.5,0,0.9-0.2,1.2-0.6c0.3-0.4,0.4-0.8,0.3-1.3c0.2-0.1,3.5-0.1,4,0
                        c0.1,0.1,0,0.1,0,0.2C-3.9,24.1-3.9,25.5-3.9,26.8L-3.9,26.8z M-10.3,22.5c0.4,0,0.8,0,1.2,0c0.2,0,0.2,0.1,0.2,0.2
                        c0.1,0.3-0.1,0.7-0.3,0.9c-0.3,0.2-0.7,0.2-0.9,0C-10.4,23.3-10.5,23-10.3,22.5L-10.3,22.5z M-3.9,21.6c0,0,0,0.1,0,0.1
                        c-0.2,0-10.9,0-11.2,0c0-0.2,0-0.3,0-0.4c0-0.5,0-1,0-1.5c0-0.5,0.4-0.9,0.9-0.9c3.2,0,6.3,0,9.5,0c0.5,0,0.8,0.3,0.8,0.8
                        C-3.9,20.3-3.9,21-3.9,21.6L-3.9,21.6z"/>
                </g>
            </g>
        </g>
    </g>
</g>
</svg>
