<svg version="1.1" xmlns="http://www.w3.org/2000/svg" xmlns:xlink="http://www.w3.org/1999/xlink" x="0px" y="0px" viewBox="0 0 17.2 15.5" enable-background="new 0 0 17.2 15.5" xml:space="preserve">
<g>
    <g transform="translate(-390.000000, -461.000000)">
        <g transform="translate(250.000000, 401.000000)">
            <g transform="translate(100.000000, 22.500000)">
                <g transform="translate(51.000000, 37.000000)">
                    <g transform="translate(0.000000, 1.500000)">
                        <g>
                            <path fill="#5B5D61" stroke="#5B5D61" stroke-width="0.5" d="M-10.8-0.8V11h7v-0.5h-6.5V-0.2H5.5v10.7H4.4V11H6
                                V-0.8H-10.8z"/>
                            <path fill="#5B5D61" stroke="#5B5D61" stroke-width="0.5" d="M3.3,6.5c0-1.7-1.3-3.1-3-3.1s-3,1.4-3,3.1
                                c0,0.6,0.2,1.1,0.4,1.6L-2.7,14l3-1.6l3,1.6L2.8,8.1C3.1,7.7,3.3,7.1,3.3,6.5L3.3,6.5z M0.3,4c1.3,0,2.4,1.1,2.4,2.5
                                S1.7,9.1,0.3,9.1S-2.1,8-2.1,6.5S-1,4,0.3,4L0.3,4z M0.3,11.9l-2.4,1.3l0.3-4.4c0.5,0.5,1.3,0.9,2.1,0.9s1.5-0.3,2.1-0.9
                                l0.3,4.4L0.3,11.9z"/>
                        </g>
                    </g>
                </g>
            </g>
        </g>
    </g>
</g>
</svg>
