<svg width="14px" height="15px" viewBox="-1 -1 16 17" version="1.1" xmlns="http://www.w3.org/2000/svg" xmlns:xlink="http://www.w3.org/1999/xlink" >
    <g id="Page-1" stroke="none" stroke-width="1" fill="none" fill-rule="evenodd">
        <path d="M7.13929136,13.5662533 L1.21705136,7.37250667 C0.965051359,7.125 0.767051359,6.84 0.587051359,6.53625333 C-0.384948641,4.845 -0.132948641,2.67874667 1.21705136,1.27350667 C1.99153136,0.456253333 3.03601136,0 4.13377136,0 C4.87153136,0 5.60929136,0.208746667 6.23929136,0.607493333 C6.52705136,0.778746667 6.79705136,1.00649333 7.04929136,1.27249333 C7.17505136,1.40524 7.28377136,1.53874667 7.39153136,1.67149333 C7.49929136,1.53874667 7.60705136,1.40524 7.73377136,1.27249333 C7.98601136,1.02524 8.25601136,0.797493333 8.54377136,0.607493333 C9.17377136,0.208746667 9.91153136,0 10.6492914,0 C11.7470514,0 12.7915314,0.456253333 13.5650514,1.27249333 C14.8970514,2.67874667 15.1670514,4.845 14.1950514,6.53524 C14.0150514,6.83898667 13.8170514,7.12398667 13.5650514,7.37149333 L7.64377136,13.5662533 C7.57153136,13.6425067 7.48153136,13.68 7.39153136,13.68 C7.30153136,13.68 7.21153136,13.6425067 7.13929136#,13.5662533 Z" stroke="#3C4B59"></path>
    </g>
</svg>
