<svg width="11px" height="14px" viewBox="0 0 11 14" version="1.1" xmlns="http://www.w3.org/2000/svg" xmlns:xlink="http://www.w3.org/1999/xlink">
    <g stroke="none" stroke-width="1" fill="none" fill-rule="evenodd">
        <g transform="translate(1.000000, 1.000000)" stroke="#5B5D61" stroke-width="0.5" fill="#5B5D61">
            <path d="M4.5,12 C4.42325455,12 4.34650909,11.97504 4.29545455,11.9 C4.11643636,11.67504 0.102272727,6.57504 0.102272727,4.3 C0.102272727,1.92496 2.07098182,0 4.5,0 C6.92901818,0 8.89772727,1.92496 8.89772727,4.3 C8.89772727,6.57504 4.88356364,11.67504 4.70454545,11.9 C4.65349091,11.97504 4.57674545,12 4.5,12 L4.5,12 Z M4.5,0.5 C2.35227273,0.5 0.613636364,2.2 0.613636364,4.3 C0.613636364,6.15008 3.68181818,10.24992 4.5,11.32496 C5.31818182,10.24992 8.38636364,6.12496 8.38636364,4.3 C8.38636364,2.2 6.64772727,0.5 4.5,0.5 L4.5,0.5 Z"></path>
            <path d="M4.5,6.08752 C3.49560642,6.08752 2.67185455,5.28219943 2.67185455,4.3 C2.67185455,3.31780057 3.49560642,2.51248 4.5,2.51248 C5.50439358,2.51248 6.32814545,3.31780057 6.32814545,4.3 C6.32814545,5.28219943 5.50439358,6.08752 4.5,6.08752 L4.5,6.08752 Z M4.5,2.90533463 C3.71649072,2.90533463 3.07363769,3.53390204 3.07363769,4.3 C3.07363769,5.06609796 3.71649072,5.69466537 4.5,5.69466537 C5.28350928,5.69466537 5.92636231,5.06609796 5.92636231,4.3 C5.92636231,3.53390204 5.28350928,2.90533463 4.5,2.90533463 L4.5,2.90533463 Z"></path>
        </g>
    </g>
</svg>
